# xmcd
#
# Track frame offsets:
#	150
#	15810
#	30092
#	46372
#	64840
#	80987
#	95620
#	109040
#	126915
#	143735
#	158260
#	171922
#	186045
#	204405
#	224087
#	238235
#	253815
#	271445
#	289480
#	305330
#
# Disc length: 4265 seconds
#
# Revision: 3
# Processed by: cddbd v1.5.2PL0 Copyright (c) Steve Scherf et al.
# Submitted via: audiograbber 1.83.01
#
DISCID=2110a714
DTITLE=Various Artist - MM Country Club Pack 2 Disc 4
DYEAR=1900
DGENRE=Karaoke
TTITLE0=Tanya Tucker - Did I Shave My Legs For This
TTITLE1=John Anderson - Somebody Slap Me
TTITLE2=Lee Ann Womack - The Fool
TTITLE3=Doug Stone - Too Busy Being In Love
TTITLE4=Vince Gill - One More Last Chance
TTITLE5=Tracy Byrd - Watermelon Crawl
TTITLE6=LeAnn Rimes - Hurt Me
TTITLE7=Alan Jackson - There Goes
TTITLE8=Deana Carter - How Do I Get There
TTITLE9=Brooks and Dunn - Honky Tonk Truth
TTITLE10=Elvis Presley - In The Ghetto
TTITLE11=George Strait - Today My World Slipped Away
TTITLE12=Toby Keith and Sting - I'm So Happy I Can't Stop Crying
TTITLE13=Shania Twain - You Win My Love
TTITLE14=Vince Gill - A Little More Love
TTITLE15=Kenny Chesney - She's Got It All
TTITLE16=Bryan White - One Small Miracle
TTITLE17=Toby Keith - Dream Walkin
TTITLE18=Collin Raye - LIttle Red Rodeo
TTITLE19=Dixie Chicks - I Can Love You Better
EXTD=
EXTT0=
EXTT1=
EXTT2=
EXTT3=
EXTT4=
EXTT5=
EXTT6=
EXTT7=
EXTT8=
EXTT9=
EXTT10=
EXTT11=
EXTT12=
EXTT13=
EXTT14=
EXTT15=
EXTT16=
EXTT17=
EXTT18=
EXTT19=
PLAYORDER=
